<svg xmlns="http://www.w3.org/2000/svg" width="440" height="293" viewBox="0 0 440 293"><rect width="100%" height="100%" fill="#31343C"/><path fill="#B0C4DE" d="M95.19 151.75h12.98V137.8q0-1.98.26-4.37l-13.24 18.32Zm19.32 0h5.37v4.22q0 .59-.38 1.02-.39.43-1.1.43h-3.89v10.41h-6.34v-10.41h-18q-.74 0-1.3-.46t-.7-1.14l-.77-3.68 20.21-27h6.9v26.61Zm14.9 0h12.98V137.8q0-1.98.26-4.37l-13.24 18.32Zm19.32 0h5.37v4.22q0 .59-.38 1.02-.39.43-1.1.43h-3.89v10.41h-6.34v-10.41h-18q-.74 0-1.3-.46t-.7-1.14l-.77-3.68 20.21-27h6.9v26.61Zm39.62-5.25q0 5.58-1.2 9.69-1.19 4.12-3.3 6.8-2.11 2.69-4.99 4-2.87 1.31-6.21 1.31-3.33 0-6.18-1.31-2.84-1.31-4.94-4-2.09-2.68-3.27-6.8-1.18-4.11-1.18-9.69 0-5.6 1.18-9.7t3.27-6.79q2.1-2.68 4.94-4 2.85-1.31 6.18-1.31 3.34 0 6.21 1.31 2.88 1.32 4.99 4 2.11 2.69 3.3 6.79 1.2 4.1 1.2 9.7Zm-7.52 0q0-4.63-.68-7.67t-1.82-4.84q-1.13-1.8-2.61-2.52-1.47-.72-3.07-.72-1.56 0-3.02.72t-2.58 2.52q-1.12 1.8-1.79 4.84-.66 3.04-.66 7.67t.66 7.67q.67 3.04 1.79 4.84 1.12 1.8 2.58 2.52t3.02.72q1.6 0 3.07-.72 1.48-.72 2.61-2.52 1.14-1.8 1.82-4.84.68-3.04.68-7.67Zm54.36 11.57-3.86 3.8-10-10-10.09 10.06-3.86-3.81 10.08-10.11-9.61-9.62 3.83-3.84 9.62 9.62 9.56-9.56 3.89 3.84-9.59 9.59 10.03 10.03Zm35.52 2.97h10.95q1.18 0 1.87.67.69.66.69 1.75v4.37h-29.26v-2.42q0-.74.31-1.55t.99-1.46l12.95-12.98q1.62-1.65 2.9-3.15 1.29-1.51 2.14-2.98.86-1.48 1.31-3 .46-1.52.46-3.2 0-1.53-.44-2.7-.44-1.16-1.25-1.96-.82-.8-1.95-1.19-1.14-.4-2.55-.4-1.3 0-2.41.37-1.1.36-1.96 1.03-.85.66-1.44 1.55-.59.88-.89 1.94-.5 1.36-1.3 1.8-.79.45-2.3.21l-3.83-.68q.44-3.07 1.71-5.38 1.27-2.32 3.17-3.87 1.9-1.55 4.36-2.33 2.47-.78 5.3-.78 2.95 0 5.4.87t4.19 2.46q1.74 1.6 2.71 3.84.98 2.24.98 4.98 0 2.36-.7 4.37-.69 2.01-1.86 3.84-1.16 1.82-2.73 3.54-1.56 1.71-3.27 3.48l-9.62 9.82q1.39-.41 2.76-.63 1.37-.23 2.61-.23Zm25.96-23.06q0 3.57 1.85 5.44 1.84 1.87 5.23 1.87 1.77 0 3.16-.56 1.39-.56 2.33-1.53.94-.98 1.43-2.3.49-1.33.49-2.87 0-1.74-.53-3.11-.54-1.37-1.51-2.31-.97-.95-2.31-1.45-1.35-.5-2.94-.5-1.65 0-2.98.55-1.33.54-2.27 1.51-.94.98-1.45 2.32-.5 1.34-.5 2.94Zm-3.57 29.85 13.25-16.55q.5-.62.94-1.21.44-.59.86-1.18-1.48.94-3.25 1.43t-3.71.49q-2.22 0-4.34-.77-2.12-.77-3.78-2.31-1.65-1.55-2.67-3.84-1.01-2.29-1.01-5.35 0-2.87 1.06-5.37 1.06-2.51 2.98-4.4 1.91-1.89 4.6-2.98 2.68-1.09 5.93-1.09 3.27 0 5.88 1.03 2.61 1.04 4.46 2.89 1.84 1.86 2.83 4.46.99 2.59.99 5.69 0 1.98-.34 3.75t-.96 3.41q-.62 1.63-1.5 3.2-.89 1.56-1.98 3.09l-9.76 13.93q-.51.71-1.51 1.19-1 .49-2.27.49h-6.7Zm35.08-30.09-3.84-.68q.45-3.07 1.71-5.38 1.27-2.32 3.18-3.87 1.9-1.55 4.36-2.33 2.46-.78 5.3-.78 2.95 0 5.32.84 2.38.84 4.06 2.33 1.68 1.49 2.58 3.5.9 2 .9 4.33 0 2.04-.46 3.59-.46 1.55-1.31 2.7-.86 1.15-2.13 1.94-1.26.8-2.86 1.33 3.84 1.21 5.73 3.69 1.88 2.48 1.88 6.22 0 3.19-1.18 5.64-1.18 2.45-3.18 4.11-2.01 1.67-4.65 2.53-2.64.85-5.59.85-3.21 0-5.6-.74-2.39-.73-4.16-2.18-1.77-1.44-3.01-3.54-1.24-2.09-2.13-4.84l3.22-1.32q1.27-.54 2.37-.28 1.11.25 1.61 1.19.53 1.03 1.17 2.04.63 1 1.52 1.78.88.78 2.08 1.27 1.19.49 2.84.49 1.86 0 3.25-.61 1.38-.6 2.31-1.58.93-.97 1.39-2.17.46-1.19.46-2.4 0-1.53-.33-2.79-.32-1.25-1.35-2.14-1.04-.88-2.97-1.38-1.93-.5-5.18-.5v-5.2q2.69-.03 4.46-.5t2.82-1.31q1.04-.84 1.46-2.02.41-1.18.41-2.6 0-3.01-1.68-4.57-1.68-1.56-4.49-1.56-1.29 0-2.39.37-1.09.36-1.96 1.03-.87.66-1.46 1.55-.59.88-.88 1.94-.5 1.36-1.32 1.8-.81.45-2.28.21Z"/></svg>