<svg xmlns="http://www.w3.org/2000/svg" width="660" height="445" viewBox="0 0 660 445"><rect width="100%" height="100%" fill="#000000"/><path fill="#FFF" d="m172.415 190.695-18.88 23.1-2.2 2.72q1.85-.92 3.99-1.43 2.13-.5 4.59-.5 3.61 0 7.02 1.19 3.41 1.18 6.01 3.58 2.59 2.4 4.18 5.96 1.58 3.57 1.58 8.32 0 4.44-1.63 8.34-1.62 3.89-4.57 6.8-2.95 2.9-7.11 4.57-4.16 1.67-9.17 1.67-5.11 0-9.15-1.62-4.05-1.63-6.91-4.56-2.86-2.92-4.38-7.04-1.52-4.11-1.52-9.13 0-4.49 1.83-9.22 1.82-4.73 5.65-9.83l15.18-20.37q.79-1.06 2.31-1.81 1.52-.74 3.5-.74h9.68Zm-16.41 55.44q2.59 0 4.77-.88 2.18-.88 3.74-2.47 1.56-1.58 2.44-3.72.88-2.13.88-4.64 0-2.73-.83-4.9-.84-2.18-2.38-3.7t-3.69-2.31q-2.16-.79-4.76-.79-2.59 0-4.7.88-2.12.88-3.61 2.44-1.5 1.56-2.33 3.7-.84 2.13-.84 4.59 0 2.64.73 4.82.72 2.18 2.15 3.72t3.54 2.4q2.12.86 4.89.86Zm67.45-55.44-18.88 23.1-2.2 2.72q1.85-.92 3.99-1.43 2.13-.5 4.59-.5 3.61 0 7.02 1.19 3.41 1.18 6.01 3.58 2.59 2.4 4.18 5.96 1.58 3.57 1.58 8.32 0 4.44-1.63 8.34-1.62 3.89-4.57 6.8-2.95 2.9-7.11 4.57-4.16 1.67-9.17 1.67-5.11 0-9.15-1.62-4.05-1.63-6.91-4.56-2.86-2.92-4.38-7.04-1.52-4.11-1.52-9.13 0-4.49 1.83-9.22 1.82-4.73 5.65-9.83l15.18-20.37q.79-1.06 2.31-1.81 1.52-.74 3.5-.74h9.68Zm-16.41 55.44q2.59 0 4.77-.88 2.18-.88 3.74-2.47 1.56-1.58 2.44-3.72.88-2.13.88-4.64 0-2.73-.83-4.9-.84-2.18-2.38-3.7t-3.69-2.31q-2.16-.79-4.76-.79-2.59 0-4.7.88-2.12.88-3.61 2.44-1.5 1.56-2.33 3.7-.84 2.13-.84 4.59 0 2.64.73 4.82.72 2.18 2.15 3.72t3.54 2.4q2.12.86 4.89.86Zm74.45-23.63q0 8.31-1.79 14.45-1.78 6.14-4.92 10.14-3.15 4.01-7.44 5.97-4.29 1.95-9.26 1.95t-9.22-1.95q-4.25-1.96-7.37-5.97-3.12-4-4.88-10.14-1.76-6.14-1.76-14.45 0-8.36 1.76-14.48 1.76-6.11 4.88-10.12 3.12-4 7.37-5.96t9.22-1.96q4.97 0 9.26 1.96t7.44 5.96q3.14 4.01 4.92 10.12 1.79 6.12 1.79 14.48Zm-11.22 0q0-6.91-1.02-11.44-1.01-4.53-2.7-7.22-1.7-2.68-3.9-3.76-2.2-1.08-4.57-1.08-2.33 0-4.51 1.08-2.18 1.08-3.85 3.76-1.67 2.69-2.66 7.22-.99 4.53-.99 11.44 0 6.91.99 11.44.99 4.53 2.66 7.21 1.67 2.69 3.85 3.77 2.18 1.07 4.51 1.07 2.37 0 4.57-1.07 2.2-1.08 3.9-3.77 1.69-2.68 2.7-7.21 1.02-4.53 1.02-11.44Zm81.09 17.25-5.77 5.67-14.91-14.91-15.05 15-5.76-5.68 15.04-15.09-14.34-14.34 5.72-5.72 14.34 14.34 14.26-14.25 5.81 5.72-14.3 14.3 14.96 14.96Zm38.1-9.42h19.36v-20.81q0-2.95.4-6.51l-19.76 27.32Zm28.82 0h8.01v6.29q0 .88-.57 1.52t-1.63.64h-5.81v15.53h-9.46v-15.53h-26.84q-1.1 0-1.93-.68-.84-.69-1.06-1.7l-1.14-5.5 30.14-40.26h10.29v39.69Zm22.22 0h19.36v-20.81q0-2.95.4-6.51l-19.76 27.32Zm28.82 0h8.01v6.29q0 .88-.57 1.52t-1.63.64h-5.81v15.53h-9.46v-15.53h-26.84q-1.1 0-1.93-.68-.84-.69-1.06-1.7l-1.14-5.5 30.14-40.26h10.29v39.69Zm30.36-29.79-2.24 13.25q2.11-.44 4.05-.64 1.93-.2 3.74-.2 5.01 0 8.84 1.5 3.83 1.49 6.42 4.13 2.6 2.64 3.92 6.18 1.32 3.55 1.32 7.64 0 5.06-1.78 9.24-1.78 4.18-4.95 7.15-3.17 2.97-7.5 4.6-4.34 1.62-9.44 1.62-2.99 0-5.68-.61-2.68-.62-5.04-1.65-2.35-1.04-4.35-2.38-2-1.34-3.59-2.84l3.35-4.62q1.05-1.49 2.77-1.49 1.1 0 2.24.7 1.15.71 2.62 1.54 1.47.84 3.48 1.54 2 .71 4.81.71 3 0 5.28-.97 2.29-.97 3.81-2.71t2.29-4.13q.77-2.4.77-5.22 0-5.19-3.02-8.12-3.01-2.92-8.91-2.92-4.53 0-9.28 1.67l-6.78-1.94 5.28-30.88h31.42v4.62q0 2.33-1.45 3.78-1.45 1.45-4.93 1.45h-17.47Z"/></svg>