<svg xmlns="http://www.w3.org/2000/svg" width="950" height="574" viewBox="0 0 950 574"><rect width="100%" height="100%" fill="#B0C4DE"/><path fill="#31343C" d="M208.38 268.79q0 7.63 3.94 11.63 3.94 4 11.18 4 3.78 0 6.74-1.2 2.96-1.2 4.98-3.27 2.02-2.08 3.06-4.92 1.04-2.83 1.04-6.11 0-3.72-1.14-6.65-1.13-2.93-3.21-4.94-2.08-2.02-4.95-3.09-2.86-1.07-6.27-1.07-3.52 0-6.36 1.17-2.83 1.16-4.85 3.24-2.02 2.08-3.09 4.95-1.07 2.86-1.07 6.26Zm-7.62 63.76 28.29-35.34q1.07-1.33 2.01-2.59.95-1.26 1.83-2.52-3.15 2.02-6.93 3.06t-7.94 1.04q-4.72 0-9.26-1.64t-8.06-4.94q-3.53-3.31-5.71-8.19-2.17-4.89-2.17-11.44 0-6.11 2.27-11.47 2.27-5.35 6.36-9.38 4.1-4.03 9.83-6.37 5.73-2.33 12.66-2.33 7 0 12.57 2.21 5.58 2.2 9.51 6.17 3.94 3.97 6.05 9.52 2.11 5.54 2.11 12.16 0 4.22-.72 8-.73 3.78-2.05 7.27-1.32 3.5-3.21 6.84t-4.22 6.61l-20.86 29.74q-1.07 1.51-3.21 2.55-2.14 1.04-4.85 1.04h-14.3Zm88.7-76.99-3.21 18.97q3.02-.63 5.8-.92 2.77-.28 5.35-.28 7.18 0 12.66 2.14 5.49 2.14 9.2 5.92 3.72 3.78 5.61 8.86 1.89 5.07 1.89 10.93 0 7.24-2.55 13.23-2.55 5.98-7.09 10.23-4.54 4.26-10.74 6.59-6.21 2.33-13.52 2.33-4.28 0-8.12-.88-3.84-.89-7.22-2.37-3.37-1.48-6.23-3.4-2.87-1.92-5.14-4.06l4.79-6.62q1.51-2.14 3.97-2.14 1.58 0 3.21 1.01 1.64 1.01 3.75 2.2 2.11 1.2 4.98 2.21 2.87 1.01 6.9 1.01 4.28 0 7.56-1.39 3.27-1.38 5.45-3.87 2.17-2.49 3.27-5.93 1.11-3.43 1.11-7.46 0-7.44-4.32-11.62-4.32-4.19-12.76-4.19-6.49 0-13.29 2.39l-9.7-2.77 7.56-44.23h44.98v6.62q0 3.34-2.08 5.42-2.08 2.07-7.06 2.07h-25.01ZM403.68 287q0 11.91-2.55 20.7-2.55 8.78-7.06 14.52-4.5 5.73-10.64 8.53-6.14 2.81-13.26 2.81t-13.2-2.81q-6.08-2.8-10.56-8.53-4.47-5.74-6.99-14.52-2.52-8.79-2.52-20.7 0-11.97 2.52-20.73 2.52-8.75 6.99-14.49 4.48-5.73 10.56-8.53 6.08-2.81 13.2-2.81 7.12 0 13.26 2.81 6.14 2.8 10.64 8.53 4.51 5.74 7.06 14.49 2.55 8.76 2.55 20.73Zm-16.06 0q0-9.89-1.45-16.38-1.45-6.49-3.88-10.33-2.42-3.84-5.57-5.39-3.15-1.54-6.55-1.54-3.34 0-6.46 1.54-3.12 1.55-5.51 5.39-2.4 3.84-3.82 10.33-1.41 6.49-1.41 16.38 0 9.89 1.41 16.38 1.42 6.49 3.82 10.33 2.39 3.85 5.51 5.39 3.12 1.54 6.46 1.54 3.4 0 6.55-1.54t5.57-5.39q2.43-3.84 3.88-10.33 1.45-6.49 1.45-16.38Zm116.11 24.7-8.26 8.12-21.35-21.35-21.55 21.48-8.25-8.13 21.54-21.61-20.54-20.53 8.19-8.19 20.54 20.53 20.41-20.41 8.32 8.19-20.47 20.48 21.42 21.42Zm66.21-56.14-3.21 18.97q3.02-.63 5.79-.92 2.77-.28 5.36-.28 7.18 0 12.66 2.14t9.2 5.92q3.71 3.78 5.6 8.86 1.9 5.07 1.9 10.93 0 7.24-2.56 13.23-2.55 5.98-7.08 10.23-4.54 4.26-10.75 6.59-6.2 2.33-13.51 2.33-4.28 0-8.13-.88-3.84-.89-7.21-2.37t-6.24-3.4q-2.86-1.92-5.13-4.06l4.79-6.62q1.51-2.14 3.97-2.14 1.57 0 3.21 1.01t3.75 2.2q2.11 1.2 4.97 2.21 2.87 1.01 6.9 1.01 4.29 0 7.56-1.39 3.28-1.38 5.45-3.87 2.18-2.49 3.28-5.93 1.1-3.43 1.1-7.46 0-7.44-4.31-11.62-4.32-4.19-12.76-4.19-6.49 0-13.3 2.39l-9.7-2.77 7.56-44.23h44.98v6.62q0 3.34-2.07 5.42-2.08 2.07-7.06 2.07h-25.01Zm50.15-14.11h62.93v6.74q0 3.03-.63 4.89-.63 1.85-1.26 3.11l-34.52 71.07q-1.07 2.2-3.02 3.75-1.96 1.54-5.23 1.54h-11.28l35.22-69.61q1.19-2.15 2.36-3.94 1.17-1.8 2.61-3.44h-43.59q-1.45 0-2.52-1.07t-1.07-2.52v-10.52Zm84.35 56.76h27.72v-29.79q0-4.23.57-9.33l-28.29 39.12Zm41.27 0h11.47v9.01q0 1.26-.82 2.18-.82.91-2.34.91h-8.31v22.24h-13.55v-22.24h-38.43q-1.57 0-2.77-.98-1.2-.97-1.51-2.42l-1.64-7.88 43.16-57.64h14.74v56.82Z"/></svg>